<mxfile host="app.diagrams.net" modified="2023-08-09T07:39:56.442Z" agent="Mozilla/5.0 (X11; Linux x86_64) AppleWebKit/537.36 (KHTML, like Gecko) Chrome/96.0.4664.110 Safari/537.36 Edg/96.0.1054.62" etag="TEplAMQ_YvTLE6iUbVg5" version="21.6.7" type="github">
  <diagram name="第 1 页" id="OTGUTxHrD48aRoJxIVsx">
    <mxGraphModel dx="1195" dy="690" grid="1" gridSize="10" guides="1" tooltips="1" connect="1" arrows="1" fold="1" page="1" pageScale="1" pageWidth="827" pageHeight="1169" math="0" shadow="0">
      <root>
        <mxCell id="0" />
        <mxCell id="1" parent="0" />
        <mxCell id="i8TRLzpzUgHaTyvow9sU-21" value="" style="group" vertex="1" connectable="0" parent="1">
          <mxGeometry x="20" y="220" width="450" height="260" as="geometry" />
        </mxCell>
        <mxCell id="i8TRLzpzUgHaTyvow9sU-4" value="" style="rounded=0;whiteSpace=wrap;html=1;fillColor=#dae8fc;strokeColor=none;" vertex="1" parent="i8TRLzpzUgHaTyvow9sU-21">
          <mxGeometry y="130" width="440" height="65" as="geometry" />
        </mxCell>
        <mxCell id="i8TRLzpzUgHaTyvow9sU-2" value="X" style="text;html=1;strokeColor=none;fillColor=#99CCFF;align=center;verticalAlign=middle;whiteSpace=wrap;rounded=0;" vertex="1" parent="i8TRLzpzUgHaTyvow9sU-21">
          <mxGeometry x="12" y="150" width="40" height="30" as="geometry" />
        </mxCell>
        <mxCell id="i8TRLzpzUgHaTyvow9sU-3" value="Y" style="text;html=1;strokeColor=none;fillColor=#99CCFF;align=center;verticalAlign=middle;whiteSpace=wrap;rounded=0;" vertex="1" parent="i8TRLzpzUgHaTyvow9sU-21">
          <mxGeometry x="64" y="150" width="40" height="30" as="geometry" />
        </mxCell>
        <mxCell id="i8TRLzpzUgHaTyvow9sU-5" value="" style="rounded=0;whiteSpace=wrap;html=1;fillColor=#ffe6cc;strokeColor=none;" vertex="1" parent="i8TRLzpzUgHaTyvow9sU-21">
          <mxGeometry width="440" height="65" as="geometry" />
        </mxCell>
        <mxCell id="i8TRLzpzUgHaTyvow9sU-6" value="" style="endArrow=classic;html=1;rounded=0;exitX=0.132;exitY=-0.015;exitDx=0;exitDy=0;exitPerimeter=0;entryX=0.132;entryY=1;entryDx=0;entryDy=0;entryPerimeter=0;" edge="1" parent="i8TRLzpzUgHaTyvow9sU-21" source="i8TRLzpzUgHaTyvow9sU-4" target="i8TRLzpzUgHaTyvow9sU-5">
          <mxGeometry width="50" height="50" relative="1" as="geometry">
            <mxPoint x="230" y="220" as="sourcePoint" />
            <mxPoint x="58" y="60" as="targetPoint" />
          </mxGeometry>
        </mxCell>
        <mxCell id="i8TRLzpzUgHaTyvow9sU-8" value="2L" style="edgeLabel;html=1;align=center;verticalAlign=middle;resizable=0;points=[];" vertex="1" connectable="0" parent="i8TRLzpzUgHaTyvow9sU-6">
          <mxGeometry x="0.0629" y="2" relative="1" as="geometry">
            <mxPoint as="offset" />
          </mxGeometry>
        </mxCell>
        <mxCell id="i8TRLzpzUgHaTyvow9sU-7" value="Add（X，Y）" style="text;html=1;strokeColor=#b85450;fillColor=#f8cecc;align=center;verticalAlign=middle;whiteSpace=wrap;rounded=0;" vertex="1" parent="i8TRLzpzUgHaTyvow9sU-21">
          <mxGeometry x="14" y="17.5" width="180" height="30" as="geometry" />
        </mxCell>
        <mxCell id="i8TRLzpzUgHaTyvow9sU-9" value="Z" style="text;html=1;strokeColor=#001DBC;fillColor=#0050ef;align=center;verticalAlign=middle;whiteSpace=wrap;rounded=0;fontColor=#ffffff;" vertex="1" parent="i8TRLzpzUgHaTyvow9sU-21">
          <mxGeometry x="165" y="147.5" width="110" height="30" as="geometry" />
        </mxCell>
        <mxCell id="i8TRLzpzUgHaTyvow9sU-10" value="" style="endArrow=classic;html=1;rounded=0;exitX=0.423;exitY=1;exitDx=0;exitDy=0;exitPerimeter=0;fillColor=#0050ef;strokeColor=#001DBC;" edge="1" parent="i8TRLzpzUgHaTyvow9sU-21">
          <mxGeometry width="50" height="50" relative="1" as="geometry">
            <mxPoint x="179.12000000000012" y="65" as="sourcePoint" />
            <mxPoint x="179" y="130" as="targetPoint" />
          </mxGeometry>
        </mxCell>
        <mxCell id="i8TRLzpzUgHaTyvow9sU-11" value="L" style="edgeLabel;html=1;align=center;verticalAlign=middle;resizable=0;points=[];" vertex="1" connectable="0" parent="i8TRLzpzUgHaTyvow9sU-10">
          <mxGeometry x="-0.1692" relative="1" as="geometry">
            <mxPoint y="3" as="offset" />
          </mxGeometry>
        </mxCell>
        <mxCell id="i8TRLzpzUgHaTyvow9sU-12" value="1L" style="edgeLabel;html=1;align=center;verticalAlign=middle;resizable=0;points=[];" vertex="1" connectable="0" parent="i8TRLzpzUgHaTyvow9sU-10">
          <mxGeometry x="-0.0768" y="-2" relative="1" as="geometry">
            <mxPoint as="offset" />
          </mxGeometry>
        </mxCell>
        <mxCell id="i8TRLzpzUgHaTyvow9sU-13" value="Relu（Z）" style="text;html=1;strokeColor=#b85450;fillColor=#f8cecc;align=center;verticalAlign=middle;whiteSpace=wrap;rounded=0;" vertex="1" parent="i8TRLzpzUgHaTyvow9sU-21">
          <mxGeometry x="250" y="17.5" width="180" height="30" as="geometry" />
        </mxCell>
        <mxCell id="i8TRLzpzUgHaTyvow9sU-14" value="" style="endArrow=classic;html=1;rounded=0;exitX=0.602;exitY=-0.009;exitDx=0;exitDy=0;exitPerimeter=0;entryX=0.6;entryY=1.006;entryDx=0;entryDy=0;entryPerimeter=0;fillColor=#0050ef;strokeColor=#001DBC;" edge="1" parent="i8TRLzpzUgHaTyvow9sU-21" source="i8TRLzpzUgHaTyvow9sU-4" target="i8TRLzpzUgHaTyvow9sU-5">
          <mxGeometry width="50" height="50" relative="1" as="geometry">
            <mxPoint x="68" y="139" as="sourcePoint" />
            <mxPoint x="68" y="75" as="targetPoint" />
          </mxGeometry>
        </mxCell>
        <mxCell id="i8TRLzpzUgHaTyvow9sU-15" value="1L" style="edgeLabel;html=1;align=center;verticalAlign=middle;resizable=0;points=[];" vertex="1" connectable="0" parent="i8TRLzpzUgHaTyvow9sU-14">
          <mxGeometry x="0.0629" y="2" relative="1" as="geometry">
            <mxPoint as="offset" />
          </mxGeometry>
        </mxCell>
        <mxCell id="i8TRLzpzUgHaTyvow9sU-16" value="R" style="text;html=1;strokeColor=none;fillColor=#99CCFF;align=center;verticalAlign=middle;whiteSpace=wrap;rounded=0;" vertex="1" parent="i8TRLzpzUgHaTyvow9sU-21">
          <mxGeometry x="390" y="147.5" width="40" height="30" as="geometry" />
        </mxCell>
        <mxCell id="i8TRLzpzUgHaTyvow9sU-17" value="" style="endArrow=classic;html=1;rounded=0;exitX=0.923;exitY=1.012;exitDx=0;exitDy=0;exitPerimeter=0;entryX=0.922;entryY=-0.009;entryDx=0;entryDy=0;entryPerimeter=0;" edge="1" parent="i8TRLzpzUgHaTyvow9sU-21" source="i8TRLzpzUgHaTyvow9sU-5" target="i8TRLzpzUgHaTyvow9sU-4">
          <mxGeometry width="50" height="50" relative="1" as="geometry">
            <mxPoint x="68" y="139" as="sourcePoint" />
            <mxPoint x="68" y="75" as="targetPoint" />
          </mxGeometry>
        </mxCell>
        <mxCell id="i8TRLzpzUgHaTyvow9sU-20" value="1L" style="edgeLabel;html=1;align=center;verticalAlign=middle;resizable=0;points=[];" vertex="1" connectable="0" parent="i8TRLzpzUgHaTyvow9sU-17">
          <mxGeometry x="-0.0437" y="-1" relative="1" as="geometry">
            <mxPoint as="offset" />
          </mxGeometry>
        </mxCell>
        <mxCell id="i8TRLzpzUgHaTyvow9sU-44" value="" style="rounded=0;whiteSpace=wrap;html=1;fillColor=#d5e8d4;strokeColor=#82b366;opacity=30;" vertex="1" parent="i8TRLzpzUgHaTyvow9sU-21">
          <mxGeometry x="230" y="-30" width="220" height="240" as="geometry" />
        </mxCell>
        <mxCell id="i8TRLzpzUgHaTyvow9sU-46" value="kernel 2" style="text;html=1;strokeColor=none;fillColor=none;align=center;verticalAlign=middle;whiteSpace=wrap;rounded=0;" vertex="1" parent="i8TRLzpzUgHaTyvow9sU-21">
          <mxGeometry x="310" y="-30" width="60" height="30" as="geometry" />
        </mxCell>
        <mxCell id="i8TRLzpzUgHaTyvow9sU-22" value="" style="group" vertex="1" connectable="0" parent="1">
          <mxGeometry x="500" y="220" width="450" height="210" as="geometry" />
        </mxCell>
        <mxCell id="i8TRLzpzUgHaTyvow9sU-23" value="" style="rounded=0;whiteSpace=wrap;html=1;fillColor=#dae8fc;strokeColor=none;" vertex="1" parent="i8TRLzpzUgHaTyvow9sU-22">
          <mxGeometry y="130" width="440" height="65" as="geometry" />
        </mxCell>
        <mxCell id="i8TRLzpzUgHaTyvow9sU-24" value="X" style="text;html=1;strokeColor=none;fillColor=#99CCFF;align=center;verticalAlign=middle;whiteSpace=wrap;rounded=0;" vertex="1" parent="i8TRLzpzUgHaTyvow9sU-22">
          <mxGeometry x="10" y="150" width="40" height="30" as="geometry" />
        </mxCell>
        <mxCell id="i8TRLzpzUgHaTyvow9sU-25" value="Y" style="text;html=1;strokeColor=none;fillColor=#99CCFF;align=center;verticalAlign=middle;whiteSpace=wrap;rounded=0;" vertex="1" parent="i8TRLzpzUgHaTyvow9sU-22">
          <mxGeometry x="70" y="150" width="40" height="30" as="geometry" />
        </mxCell>
        <mxCell id="i8TRLzpzUgHaTyvow9sU-26" value="" style="rounded=0;whiteSpace=wrap;html=1;fillColor=#ffe6cc;strokeColor=none;" vertex="1" parent="i8TRLzpzUgHaTyvow9sU-22">
          <mxGeometry width="440" height="65" as="geometry" />
        </mxCell>
        <mxCell id="i8TRLzpzUgHaTyvow9sU-27" value="" style="endArrow=classic;html=1;rounded=0;exitX=0.132;exitY=-0.015;exitDx=0;exitDy=0;exitPerimeter=0;entryX=0.132;entryY=1;entryDx=0;entryDy=0;entryPerimeter=0;" edge="1" parent="i8TRLzpzUgHaTyvow9sU-22" source="i8TRLzpzUgHaTyvow9sU-23" target="i8TRLzpzUgHaTyvow9sU-26">
          <mxGeometry width="50" height="50" relative="1" as="geometry">
            <mxPoint x="230" y="220" as="sourcePoint" />
            <mxPoint x="58" y="60" as="targetPoint" />
          </mxGeometry>
        </mxCell>
        <mxCell id="i8TRLzpzUgHaTyvow9sU-28" value="2L" style="edgeLabel;html=1;align=center;verticalAlign=middle;resizable=0;points=[];" vertex="1" connectable="0" parent="i8TRLzpzUgHaTyvow9sU-27">
          <mxGeometry x="0.0629" y="2" relative="1" as="geometry">
            <mxPoint as="offset" />
          </mxGeometry>
        </mxCell>
        <mxCell id="i8TRLzpzUgHaTyvow9sU-29" value="Add（X，Y）" style="text;html=1;strokeColor=#b85450;fillColor=#f8cecc;align=center;verticalAlign=middle;whiteSpace=wrap;rounded=0;" vertex="1" parent="i8TRLzpzUgHaTyvow9sU-22">
          <mxGeometry x="11" y="17.5" width="180" height="30" as="geometry" />
        </mxCell>
        <mxCell id="i8TRLzpzUgHaTyvow9sU-34" value="Relu（Z）" style="text;html=1;strokeColor=#b85450;fillColor=#f8cecc;align=center;verticalAlign=middle;whiteSpace=wrap;rounded=0;" vertex="1" parent="i8TRLzpzUgHaTyvow9sU-22">
          <mxGeometry x="250" y="17.5" width="180" height="30" as="geometry" />
        </mxCell>
        <mxCell id="i8TRLzpzUgHaTyvow9sU-37" value="R" style="text;html=1;strokeColor=none;fillColor=#99CCFF;align=center;verticalAlign=middle;whiteSpace=wrap;rounded=0;" vertex="1" parent="i8TRLzpzUgHaTyvow9sU-22">
          <mxGeometry x="390" y="147.5" width="40" height="30" as="geometry" />
        </mxCell>
        <mxCell id="i8TRLzpzUgHaTyvow9sU-38" value="" style="endArrow=classic;html=1;rounded=0;exitX=0.923;exitY=1.012;exitDx=0;exitDy=0;exitPerimeter=0;entryX=0.922;entryY=-0.009;entryDx=0;entryDy=0;entryPerimeter=0;" edge="1" parent="i8TRLzpzUgHaTyvow9sU-22" source="i8TRLzpzUgHaTyvow9sU-26" target="i8TRLzpzUgHaTyvow9sU-23">
          <mxGeometry width="50" height="50" relative="1" as="geometry">
            <mxPoint x="68" y="139" as="sourcePoint" />
            <mxPoint x="68" y="75" as="targetPoint" />
          </mxGeometry>
        </mxCell>
        <mxCell id="i8TRLzpzUgHaTyvow9sU-39" value="1L" style="edgeLabel;html=1;align=center;verticalAlign=middle;resizable=0;points=[];" vertex="1" connectable="0" parent="i8TRLzpzUgHaTyvow9sU-38">
          <mxGeometry x="-0.0437" y="-1" relative="1" as="geometry">
            <mxPoint as="offset" />
          </mxGeometry>
        </mxCell>
        <mxCell id="i8TRLzpzUgHaTyvow9sU-40" value="" style="endArrow=classic;html=1;rounded=0;exitX=1;exitY=0.5;exitDx=0;exitDy=0;entryX=0;entryY=0.5;entryDx=0;entryDy=0;fillColor=#f8cecc;strokeColor=#b85450;" edge="1" parent="i8TRLzpzUgHaTyvow9sU-22" source="i8TRLzpzUgHaTyvow9sU-29" target="i8TRLzpzUgHaTyvow9sU-34">
          <mxGeometry width="50" height="50" relative="1" as="geometry">
            <mxPoint x="50" y="160" as="sourcePoint" />
            <mxPoint x="100" y="110" as="targetPoint" />
          </mxGeometry>
        </mxCell>
        <mxCell id="i8TRLzpzUgHaTyvow9sU-47" value="" style="rounded=0;whiteSpace=wrap;html=1;fillColor=#d5e8d4;strokeColor=#82b366;opacity=30;" vertex="1" parent="i8TRLzpzUgHaTyvow9sU-22">
          <mxGeometry x="-9" y="-30" width="459" height="240" as="geometry" />
        </mxCell>
        <mxCell id="i8TRLzpzUgHaTyvow9sU-48" value="kernel 1" style="text;html=1;strokeColor=none;fillColor=none;align=center;verticalAlign=middle;whiteSpace=wrap;rounded=0;" vertex="1" parent="i8TRLzpzUgHaTyvow9sU-22">
          <mxGeometry x="195" y="-30" width="60" height="30" as="geometry" />
        </mxCell>
        <mxCell id="i8TRLzpzUgHaTyvow9sU-43" value="" style="rounded=0;whiteSpace=wrap;html=1;fillColor=#d5e8d4;strokeColor=#82b366;opacity=30;" vertex="1" parent="1">
          <mxGeometry x="10" y="190" width="220" height="240" as="geometry" />
        </mxCell>
        <mxCell id="i8TRLzpzUgHaTyvow9sU-45" value="kernel 1" style="text;html=1;strokeColor=none;fillColor=none;align=center;verticalAlign=middle;whiteSpace=wrap;rounded=0;" vertex="1" parent="1">
          <mxGeometry x="90" y="190" width="60" height="30" as="geometry" />
        </mxCell>
      </root>
    </mxGraphModel>
  </diagram>
</mxfile>
